<svg xmlns="http://www.w3.org/2000/svg" viewBox="16.49 11.293 106.44 106.894" fill="currentColor"><g transform="rotate(180 69.71 64.74)"><path fill-rule="evenodd" clip-rule="evenodd" d="M61.061 45.548C60.794 45.673 60.243 45.966 60.33 46.229C60.56 45.995 60.799 45.774 61.061 45.548ZM70.347 44.895C67.668 44.619 65.223 45.707 63.086 47.22C63.072 47.23 62.819 47.413 62.442 47.673C62.089 48.111 61.757 48.437 61.385 48.461C61.321 48.465 61.27 48.477 61.215 48.486C59.549 49.538 57.516 50.592 58.473 48.74C58.623 48.449 58.791 48.17 58.968 47.897C58.828 47.673 58.763 47.448 58.856 47.134C58.867 47.095 64.477 42.554 64.786 42.777C64.893 42.856 64.411 43.313 64.497 43.442C64.703 43.352 64.913 43.267 65.125 43.187C64.837 42.583 69.792 41.189 66.81 42.213C66.956 42.234 67.354 42.323 67.777 42.427C69.223 42.14 70.711 42.041 72.169 42.142C71.951 42.064 71.759 41.943 71.623 41.731C71.778 40.825 72.267 41.872 72.394 42.156C73.323 42.233 74.238 42.393 75.118 42.639C75.078 42.563 75.062 42.482 75.094 42.402C75.24 42.062 75.399 42.44 75.483 42.742C78.626 43.712 81.276 45.798 82.481 49.159C83.174 51.084 71.743 45.038 70.347 44.895ZM61.212 61.326C61.147 61.328 60.596 60.962 60.803 60.694C61.065 60.367 61.364 61.322 61.212 61.326ZM59.067 59.566C58.989 59.491 58.027 58.994 58.153 58.696C58.377 58.168 59.132 59.605 59.067 59.566ZM53.523 58.058C52.961 58.054 52.451 57.895 51.989 57.579C52.045 56.499 53.371 58.014 53.523 58.058ZM104.492 67.136C104.556 67.174 104.744 67.994 104.546 67.917C104.49 67.896 104.458 67.882 104.442 67.876C104.835 68.025 104.277 67.033 104.492 67.136ZM102.708 65.04C102.391 64.9 102.236 64.263 102.072 64.163C102.306 64.304 102.615 65 102.708 65.04ZM99.608 62.505C99.548 62.505 99.074 62.132 99.295 61.879C99.577 61.564 99.753 62.505 99.608 62.505ZM91.578 58.26C91.782 57.283 92.998 58.911 92.897 58.904C92.738 58.815 91.512 58.621 91.578 58.26ZM99.495 42.158C99.649 42.344 99.819 42.512 99.99 42.67C99.872 42.506 99.752 42.341 99.629 42.179C99.584 42.171 99.543 42.165 99.495 42.158ZM96.079 38.151C96.168 38.413 96.251 38.678 96.365 38.935C93.936 36.586 91.482 34.718 88.662 32.897C88.711 32.811 88.772 32.743 88.828 32.665C87.56 31.937 86.256 31.29 84.919 30.724C84.38 30.614 83.874 30.447 83.477 30.144C82.898 29.927 82.315 29.721 81.727 29.531C81.699 29.638 81.678 29.745 81.647 29.85C80.843 29.624 78.999 29.137 78.746 28.992C78.808 28.898 78.878 28.829 78.946 28.756C78.522 28.654 78.097 28.562 77.67 28.476C76.681 28.574 75.365 28.501 75.031 28.474C75.372 28.414 75.541 28.288 75.576 28.107C73.864 27.859 72.135 27.727 70.405 27.71C70.183 28.052 69.749 28.209 68.463 28.229C68.575 28.132 68.665 27.949 68.727 27.727C67.249 27.777 65.774 27.911 64.31 28.131C63.329 28.634 60.734 29.167 59.619 29.148C59.255 29.251 58.892 29.356 58.531 29.472C58.42 29.622 58.243 29.751 57.966 29.84C57.353 29.935 56.816 30.187 56.353 30.601C56.147 30.664 55.771 30.648 55.339 30.655C54.541 30.993 53.753 31.356 52.977 31.752C52.957 31.789 52.933 31.824 52.914 31.866C52.636 32.454 51.319 32.963 50.122 33.382C49.278 33.914 48.461 34.479 47.671 35.074C47.196 35.862 46.565 36.241 45.876 36.507C43.899 38.199 42.121 40.089 40.552 42.13C41.14 42.535 40.715 42.742 40.011 42.84C39.713 43.246 39.425 43.658 39.144 44.074C39.232 44.028 39.319 43.987 39.416 43.925C39.228 44.203 39.015 44.426 38.783 44.629C34.987 50.477 32.795 57.33 32.534 64.36C32.749 64.598 32.825 64.855 32.513 65.081C32.491 66.266 32.526 67.455 32.615 68.643C32.94 68.226 33.313 67.761 33.724 67.27C33.611 67.443 33.536 67.64 33.483 67.852C33.718 67.471 33.975 67.101 34.247 66.74C34.163 66.802 34.08 66.863 34.008 66.931C36.341 64.182 39.567 60.877 40.537 61.158C40.617 61.174 40.37 61.444 40.174 61.687C40.64 61.417 41.112 61.16 41.591 60.919C42.255 60.502 43.362 59.948 44.225 59.528C44.685 59.463 45.116 59.388 45.522 59.305C46.068 59.128 46.614 58.962 47.148 58.828C48.21 58.558 49.221 58.388 50.188 58.306C50.568 58.266 50.963 58.247 51.382 58.253C53.175 58.238 54.808 58.538 56.31 59.092C57.32 59.169 58.557 59.761 59.755 60.555C59.834 60.572 59.891 60.575 59.904 60.555C59.886 60.582 59.862 60.6 59.832 60.607C61.872 61.976 63.767 63.89 64.142 64.771C64.133 64.751 65.628 64.701 64.439 65.122C64.029 65.474 65.844 65.176 65.543 64.949C66.144 65.398 64.962 65.647 65.107 65.893C65.16 65.98 65.306 66.221 65.478 66.502C65.473 66.526 65.483 66.544 65.504 66.548C65.6 66.703 65.7 66.869 65.802 67.031C65.862 66.953 65.945 66.94 66.065 67.021C66.037 67.112 65.995 67.174 65.939 67.212C66.103 67.43 66.268 67.649 66.43 67.871C66.604 67.832 66.842 68.229 67.084 68.775C67.673 69.601 68.251 70.443 68.824 71.289C70.463 71.288 72.11 71.343 73.742 71.177C73.728 71.065 73.725 70.958 73.717 70.846C73.545 70.436 73.357 69.941 73.366 70.011C73.329 69.744 73.591 69.121 74.038 68.315C74.645 66.399 76.013 64.584 77.708 63.066C78.974 61.559 80.173 60.442 80.759 60.553C80.862 60.572 80.711 60.77 80.548 60.973C81.157 60.605 81.775 60.28 82.391 59.998C82.983 59.682 83.701 59.336 84.296 59.053C84.723 59.03 85.122 59.004 85.498 58.978C85.699 58.94 85.898 58.908 86.091 58.887C86.863 58.798 87.635 58.795 88.406 58.794C89.831 58.792 91.23 58.892 93.283 59.467C93.432 59.513 93.567 59.582 93.693 59.661C94.204 59.82 94.705 60 95.199 60.202C96.01 60.361 97.028 60.911 98.04 61.63C99.989 62.813 101.734 64.318 103.16 66.091C103.399 66.042 103.592 65.962 103.544 65.859C103.652 66.087 103.535 66.24 103.388 66.361C103.888 67.011 104.332 67.702 104.744 68.414C104.804 68.478 104.856 68.576 104.908 68.698C105.3 69.409 105.648 70.143 105.941 70.908C105.965 70.691 105.999 70.474 106.019 70.253C106.33 70.46 106.589 70.503 106.808 70.418C106.831 70.232 106.854 70.047 106.875 69.862C106.621 69.78 106.357 69.767 106.081 69.838C105.454 67.32 105.752 66.536 106.976 67.481C107.013 67.476 107.041 67.487 107.074 67.487C107.097 67.082 107.115 66.679 107.125 66.273C106.904 66.412 106.647 66.555 106.327 66.703C106.316 65.869 105.685 63.17 107.114 63.617C107.113 63.586 107.109 63.557 107.109 63.528C106.255 62.492 106.475 61.711 106.936 61.121C106.867 60.444 106.785 59.767 106.683 59.094C105.807 58.798 104.998 58.353 105.736 57.001C105.91 57.249 106.132 57.412 106.402 57.491C106.219 56.556 106.004 55.629 105.753 54.71C104.807 53.64 104.289 52.231 103.613 50.594C103.857 50.49 104.067 50.401 104.263 50.323C104.19 50.148 104.119 49.972 104.043 49.797C103.974 49.837 103.912 49.875 103.834 49.916C103.835 49.658 103.809 49.415 103.772 49.178C103.462 48.49 103.132 47.81 102.778 47.142C102.546 46.896 102.275 46.676 101.965 46.475C102.113 46.447 102.257 46.437 102.399 46.439C102.073 45.853 101.73 45.272 101.371 44.7C101.313 44.891 101.202 45.099 101.01 45.332C99.87 43.483 98.832 41.303 97.259 39.777C97.294 39.718 97.33 39.604 97.365 39.47C96.951 39.021 96.52 38.581 96.079 38.151ZM51.996 100.802C52.067 100.808 52.137 100.815 52.209 100.821C52.166 100.798 52.123 100.773 52.081 100.752C52.052 100.768 52.023 100.783 51.996 100.802ZM104.238 72.614C103.83 72.616 103.42 72.616 103.012 72.618C103.473 72.66 103.903 72.709 104.295 72.762C104.278 72.713 104.256 72.666 104.238 72.614ZM95.805 60.448C95.99 60.53 96.171 60.628 96.355 60.716C96.376 60.72 96.408 60.736 96.453 60.766C96.057 60.474 95.817 60.404 95.805 60.448ZM90.552 61.216C88.292 60.837 86.098 61.067 84.055 61.806C83.955 61.873 83.872 61.931 83.829 61.967C83.809 61.943 83.788 61.924 83.767 61.904C83.732 61.916 83.697 61.925 83.664 61.938C83.704 61.961 83.737 61.981 83.79 62.006C83.541 62.07 83.206 62.246 82.825 62.49C85.778 61.204 89.039 60.913 92.197 61.574C91.655 61.43 91.106 61.309 90.552 61.216ZM41.291 63.564C41.373 63.58 41.431 63.621 41.446 63.681C42.143 63.294 42.852 62.954 43.569 62.652C42.935 62.865 42.312 63.075 41.701 63.304C41.563 63.389 41.426 63.476 41.291 63.564ZM61.369 64.469C61.291 64.399 61.209 64.336 61.128 64.269C61.198 64.34 61.283 64.405 61.369 64.469ZM50.473 73.886C50.424 73.888 50.374 73.888 50.326 73.89C50.379 73.9 50.434 73.904 50.473 73.886ZM51.032 73.877C51.06 73.938 51.124 74.006 51.246 74.077C51.342 74.008 51.382 73.938 51.382 73.871C51.265 73.873 51.148 73.875 51.032 73.877ZM91.332 74.29C90.913 74.262 90.533 74.236 90.197 74.217C90.608 74.274 91.02 74.333 91.433 74.391C91.403 74.348 91.365 74.327 91.332 74.29ZM74.798 74.062C74.982 74.048 75.262 74.157 75.513 74.008C75.413 74.006 75.313 74.004 75.212 74.002C74.894 74.03 74.539 74.081 74.798 74.062ZM66.738 73.957C66.765 73.957 66.827 73.933 66.891 73.899C66.849 73.899 66.806 73.899 66.764 73.897C66.758 73.92 66.741 73.931 66.738 73.957ZM49.251 74.066C49.166 73.998 49.105 73.95 49.049 73.912C49.007 73.912 48.967 73.912 48.925 73.914C48.973 73.963 49.04 74.012 49.11 74.044C49.067 74.067 49.08 74.117 49.251 74.066ZM41.382 74.341C41.436 74.425 41.519 74.459 41.631 74.439C41.635 73.749 41.356 74.295 41.382 74.341ZM40.252 74.484C40.793 74.656 40.392 74.368 40.252 74.484C40.283 74.494 40.469 74.303 40.252 74.484ZM34.008 73.547C34.052 73.543 35.253 73.63 34.529 73.412C34.391 73.371 34.296 73.353 34.202 73.332C34.118 73.356 34.053 73.426 34.008 73.547ZM41.029 63.744C40.414 64.157 39.82 64.598 39.25 65.062C39.904 64.6 40.575 64.178 41.256 63.794C41.171 63.795 41.083 63.78 41.029 63.744ZM101.478 86.175C101.335 86.168 101.188 86.147 101.035 86.105C101.126 86.275 101.198 86.404 101.264 86.521C101.335 86.406 101.408 86.291 101.478 86.175ZM58.363 102.125C58.409 102.114 58.453 102.1 58.489 102.088C58.151 101.96 58.541 101.495 58.336 101.609C58.333 101.693 58.222 101.721 58.291 101.638C58.232 101.677 58.154 101.732 58.025 101.837C57.983 101.869 57.962 101.893 57.931 101.922C58.076 101.99 58.219 102.058 58.363 102.125ZM45.255 93.484C45.197 93.499 45.149 93.527 45.093 93.546C45.231 93.668 45.366 93.792 45.505 93.912C45.878 93.97 46.381 94.297 47.318 94.972C49.029 96.205 51.152 96.586 50.581 97.711C50.783 97.847 50.985 97.98 51.191 98.115C51.242 98.013 51.291 97.907 51.348 97.796C52.829 98.693 54.353 99.301 54.919 100.355C55.163 100.49 55.402 100.629 55.648 100.763C55.727 100.669 55.747 100.524 55.69 100.317C56.05 100.505 56.409 100.693 56.769 100.881C56.666 100.982 56.563 101.083 56.461 101.186C56.646 101.281 56.831 101.376 57.017 101.472C57.056 101.334 57.08 101.186 57.075 101.018C61.242 102.852 65.663 102.95 69.707 104.543C70.145 104.398 70.712 104.249 71.44 104.095C71.546 104.071 71.652 104.051 71.759 104.027C73.743 103.193 76.36 101.958 77.665 101.784C79.71 101.514 81.496 99.859 84.4 100.225C84.633 100.246 84.491 100.387 84.216 100.556C84.561 100.421 84.905 100.29 85.246 100.145C86.136 99.77 86.996 99.353 87.838 98.918C86.574 97.841 89.268 97.455 90.961 97.093C91.326 96.853 91.688 96.609 92.041 96.358C91.818 96.138 91.403 95.934 91.383 95.923C91.945 95.168 94.064 94.346 95.556 93.491C96.079 93.001 96.59 92.502 97.081 91.982C97.082 91.926 97.091 91.869 97.078 91.813C96.803 90.636 98.636 89.516 99.319 89.073C100.083 89.32 101.764 81.431 103.896 81.41C104.106 80.908 104.303 80.396 104.494 79.882C104.425 79.144 104.222 78.369 104.506 77.318C105.074 77.612 105.164 77.472 105.346 77.324C105.381 77.205 105.42 77.088 105.454 76.971C104.647 76.493 105.177 75.364 105.44 74.341C104.273 74.637 102.353 74.728 100.216 74.709C98.649 74.945 97.153 75.094 97.067 74.743C97.123 74.699 97.183 74.668 97.239 74.632C95.695 74.567 94.171 74.475 92.842 74.389C88.932 74.477 84.435 74.62 84.436 74.532C84.435 74.588 86.055 74.335 87.091 74.181C85.968 74.225 83.858 74.198 81.853 74.113C81.903 74.102 81.952 74.096 82.001 74.082C81.664 74.079 81.325 74.075 80.987 74.071C81.271 74.086 81.561 74.1 81.853 74.113C81.251 74.242 80.643 74.254 80.031 74.131C80.056 74.102 80.089 74.084 80.119 74.062C79.938 74.06 79.757 74.06 79.577 74.056C79.522 74.165 79.374 74.161 79.139 74.052C78.291 74.04 77.445 74.03 76.598 74.021C76.753 74.081 76.853 74.125 76.851 74.139C74.835 74.139 74.162 74.144 71.966 74.145C72.435 74.278 72.911 74.374 73.395 74.435C69.911 74.38 66.787 74.643 63.331 74.386C63.677 74.395 64.023 74.431 64.369 74.453C61.902 74.346 55.622 74.225 57.489 74.963C52.959 74.652 49.431 74.254 44.935 74.563C44.635 74.585 43.765 74.61 42.632 74.624C42.701 74.59 42.783 74.537 42.882 74.459C42.545 74.169 42.31 74.5 42.383 74.626C40.572 74.641 38.18 74.616 36.305 74.471L36.172 74.461C35.077 74.37 34.176 74.236 33.695 74.044C33.82 74.913 33.937 75.706 34.058 76.435C35.903 82.567 39.362 88.134 44.014 92.559C44.417 92.88 44.826 93.195 45.255 93.484ZM50.299 60.598C48.453 60.613 46.669 61.016 44.976 61.669C44.356 62.081 43.87 62.445 43.778 62.545C43.659 62.428 43.518 62.372 43.411 62.356C43.369 62.378 43.326 62.397 43.284 62.418C43.321 62.464 43.441 62.524 43.709 62.59C43.725 62.582 43.74 62.574 43.757 62.569C49.549 60.189 55.826 60.532 60.946 64.163C60.933 64.141 60.925 64.118 60.915 64.092C57.969 61.713 54.115 60.568 50.299 60.598ZM57.07 59.287C57.016 59.288 56.959 59.307 56.901 59.323C57.158 59.432 57.41 59.547 57.66 59.669C57.486 59.407 57.291 59.284 57.07 59.287ZM106.311 73.008C106.271 73.073 106.226 73.135 106.173 73.187C106.237 73.216 106.296 73.246 106.347 73.275C106.367 73.173 106.387 73.071 106.406 72.968C106.375 72.982 106.342 72.992 106.311 73.008ZM108.718 71.639C106.217 90.554 91.961 102.84 73.62 105.896C71.874 106.187 69.629 106.034 68.817 105.634C67.206 105.94 65.011 106.146 64.721 106.126C63.428 106.032 62.504 105.744 61.739 105.362C62.175 105.373 62.611 105.385 63.047 105.396C62.335 104.808 61.823 104.689 61.513 105.031C61.47 105.079 61.435 105.125 61.402 105.182C60.696 104.782 60.115 104.305 59.477 103.838C58.159 103.437 56.875 102.976 55.627 102.452C55.458 102.538 55.291 102.661 55.43 103.027C54.492 102.588 49.783 100.097 49.92 99.996C50.564 100.24 51.201 100.501 51.831 100.777C49.994 99.841 43.856 97.295 43.319 95.445C43.555 95.266 43.753 95.099 43.93 94.942C43.826 94.849 43.723 94.754 43.62 94.657C43.491 94.863 43.379 95.095 43.288 95.352C41.638 92.645 41.374 93.871 39.258 91.509C37.87 89.908 36.059 84.259 34.123 83.616C33.122 83.271 29.883 72.814 30.744 71.663C30.678 71.753 30.918 72.207 31.172 72.733C28.49 60.391 31.448 46.822 42.101 36.31C42.735 35.684 43.397 35.088 44.075 34.514C44.221 34.262 44.358 33.995 44.482 33.705C45.257 31.874 46.683 32.131 47.992 31.624C59.665 24.171 75.427 23.293 87.828 29.506C103.251 37.233 110.93 54.906 108.718 71.639Z"/></g></svg>
